<svg xmlns="http://www.w3.org/2000/svg" viewBox="0 0 1672 941" preserveAspectRatio="xMidYMid meet">
<title>China map dashboard vector base</title>
<desc>Internal dashboard schematic map, non-survey use.</desc>
<rect id="map-background" x="0" y="0" width="100%" height="100%" fill="#F8FBFF"/>
<defs>
  <linearGradient id="mapFill" x1="0" y1="0" x2="1" y2="1">
    <stop offset="0%" stop-color="#F5FBFF"/>
    <stop offset="58%" stop-color="#EAF5FF"/>
    <stop offset="100%" stop-color="#DCEEFF"/>
  </linearGradient>
  <filter id="softShadow" x="-10%" y="-10%" width="120%" height="120%">
    <feDropShadow dx="0" dy="8" stdDeviation="10" flood-color="#1F5D91" flood-opacity="0.12"/>
  </filter>
</defs>
<g id="dashboard-background-grid" opacity="0.14" stroke="#BBD7F0" stroke-width="1" fill="none">
<path d="M 0 610 L -130 941"/>
<path d="M 150 610 L 20 941"/>
<path d="M 300 610 L 170 941"/>
<path d="M 450 610 L 320 941"/>
<path d="M 600 610 L 470 941"/>
<path d="M 750 610 L 620 941"/>
<path d="M 900 610 L 770 941"/>
<path d="M 1050 610 L 920 941"/>
<path d="M 1200 610 L 1070 941"/>
<path d="M 1350 610 L 1220 941"/>
<path d="M 1500 610 L 1370 941"/>
<path d="M 1650 610 L 1520 941"/>
<path d="M 0 610 H 1672"/>
<path d="M 0 680 H 1672"/>
<path d="M 0 750 H 1672"/>
<path d="M 0 820 H 1672"/>
<path d="M 0 890 H 1672"/>
</g>
<g id="china-map" filter="url(#softShadow)">
<path d="M 1419 146 L 1413 144 L 1397 148 L 1386 156 L 1379 157 L 1373 165 L 1349 169 L 1346 164 L 1347 156 L 1340 151 L 1339 142 L 1331 142 L 1319 131 L 1309 131 L 1307 128 L 1292 130 L 1285 122 L 1286 113 L 1281 108 L 1281 102 L 1275 98 L 1272 83 L 1255 51 L 1245 44 L 1234 45 L 1232 41 L 1213 35 L 1182 41 L 1179 45 L 1170 46 L 1158 60 L 1159 64 L 1167 66 L 1167 80 L 1157 87 L 1142 117 L 1143 125 L 1122 138 L 1110 136 L 1103 131 L 1082 172 L 1088 185 L 1098 181 L 1114 185 L 1122 176 L 1134 179 L 1141 189 L 1150 194 L 1149 206 L 1127 204 L 1123 208 L 1115 208 L 1112 213 L 1100 215 L 1093 229 L 1083 237 L 1070 236 L 1061 246 L 1048 253 L 1038 252 L 1024 245 L 1018 247 L 1009 263 L 1017 279 L 1001 288 L 990 302 L 968 310 L 926 310 L 893 321 L 884 329 L 874 330 L 871 322 L 857 325 L 846 319 L 836 318 L 821 306 L 814 307 L 812 304 L 770 305 L 733 297 L 721 300 L 711 287 L 703 261 L 693 262 L 684 253 L 670 246 L 637 243 L 633 238 L 626 237 L 625 231 L 632 222 L 633 205 L 625 194 L 621 180 L 610 172 L 595 169 L 592 160 L 584 155 L 581 142 L 564 142 L 553 158 L 541 159 L 536 172 L 537 187 L 533 191 L 505 190 L 494 184 L 475 218 L 474 230 L 462 226 L 434 231 L 429 235 L 435 241 L 438 277 L 433 279 L 427 289 L 425 299 L 399 313 L 393 313 L 391 317 L 380 321 L 374 330 L 350 330 L 339 346 L 326 346 L 320 338 L 315 342 L 304 341 L 295 349 L 280 352 L 276 364 L 267 370 L 268 386 L 273 394 L 279 391 L 288 393 L 291 420 L 280 422 L 278 426 L 294 430 L 296 435 L 303 436 L 309 456 L 340 466 L 347 474 L 348 483 L 362 491 L 361 497 L 354 503 L 358 516 L 364 520 L 365 533 L 357 534 L 353 528 L 347 533 L 351 561 L 360 572 L 369 572 L 376 582 L 389 587 L 396 597 L 403 589 L 413 590 L 421 601 L 434 610 L 436 616 L 447 614 L 450 624 L 461 628 L 464 635 L 474 637 L 480 645 L 496 644 L 502 649 L 516 649 L 533 644 L 532 655 L 537 661 L 550 642 L 559 641 L 581 650 L 592 660 L 594 672 L 626 672 L 639 657 L 659 650 L 663 644 L 682 646 L 692 654 L 699 651 L 699 644 L 703 640 L 711 641 L 712 652 L 722 657 L 723 678 L 718 691 L 712 698 L 707 698 L 707 703 L 701 706 L 696 716 L 698 731 L 695 737 L 700 739 L 707 734 L 718 735 L 722 752 L 731 756 L 726 773 L 728 776 L 742 777 L 747 789 L 756 791 L 767 788 L 770 795 L 781 796 L 782 781 L 778 773 L 780 767 L 808 768 L 811 763 L 829 766 L 832 760 L 846 759 L 849 751 L 862 747 L 871 756 L 886 756 L 887 761 L 882 765 L 887 771 L 887 778 L 909 787 L 910 793 L 912 789 L 936 787 L 940 795 L 950 790 L 955 791 L 952 805 L 957 810 L 961 823 L 941 828 L 940 833 L 929 841 L 927 848 L 929 861 L 950 871 L 974 854 L 976 843 L 986 834 L 985 824 L 973 820 L 976 813 L 972 806 L 976 805 L 975 796 L 979 792 L 998 790 L 1013 783 L 1024 788 L 1030 778 L 1045 774 L 1053 776 L 1064 763 L 1070 763 L 1072 758 L 1086 760 L 1090 764 L 1094 755 L 1103 752 L 1113 741 L 1120 740 L 1159 701 L 1165 703 L 1175 693 L 1171 677 L 1176 674 L 1177 666 L 1189 651 L 1190 642 L 1200 641 L 1205 628 L 1214 624 L 1211 617 L 1216 614 L 1220 593 L 1227 587 L 1226 578 L 1221 576 L 1214 585 L 1210 585 L 1203 577 L 1196 577 L 1198 570 L 1214 564 L 1211 538 L 1201 533 L 1200 527 L 1188 523 L 1188 515 L 1174 490 L 1153 479 L 1158 465 L 1171 453 L 1181 451 L 1184 441 L 1198 436 L 1202 431 L 1213 433 L 1217 425 L 1216 418 L 1204 415 L 1194 417 L 1177 408 L 1179 398 L 1174 404 L 1174 411 L 1165 415 L 1158 426 L 1148 426 L 1142 422 L 1142 417 L 1147 414 L 1142 405 L 1130 406 L 1123 403 L 1117 392 L 1122 386 L 1138 387 L 1143 383 L 1146 371 L 1169 358 L 1179 344 L 1192 345 L 1198 350 L 1196 357 L 1182 372 L 1182 375 L 1189 378 L 1188 383 L 1180 385 L 1184 391 L 1208 380 L 1218 381 L 1226 366 L 1234 366 L 1252 345 L 1274 334 L 1285 316 L 1310 321 L 1314 317 L 1313 307 L 1323 306 L 1337 295 L 1340 283 L 1344 283 L 1354 293 L 1364 275 L 1359 237 L 1367 233 L 1368 228 L 1385 231 L 1391 228 L 1392 218 L 1402 202 L 1405 174 L 1414 166 L 1411 153 Z" fill="url(#mapFill)" stroke="#5B97D8" stroke-width="2.1" stroke-linejoin="round" stroke-linecap="round"/>
<path d="M 1212 689 L 1208 695 L 1195 704 L 1178 734 L 1178 749 L 1186 763 L 1191 764 L 1193 772 L 1197 771 L 1198 760 L 1200 759 L 1201 753 L 1206 746 L 1210 734 L 1211 722 L 1215 715 L 1215 705 L 1217 701 L 1214 698 Z" fill="url(#mapFill)" stroke="#5B97D8" stroke-width="2.1" stroke-linejoin="round" stroke-linecap="round"/>
</g>
<g id="province-and-region-lines" fill="none" stroke="#8DB8E7" stroke-width="1.1" stroke-linecap="round" stroke-linejoin="round" opacity="0.42">
<path d="M 1222 195 L 1222 201 L 1218 201 L 1218 199 L 1221 199 L 1211 203 L 1214 203 L 1216 200 L 1218 201 L 1215 205 L 1211 205 L 1214 209 L 1213 211 L 1209 204 L 1212 210 L 1207 214 L 1205 222 L 1201 220 L 1200 222 L 1194 221 L 1193 219 L 1188 220 L 1195 215 L 1188 219 L 1190 225 L 1187 222 L 1186 224 L 1185 221 L 1183 223 L 1190 225 L 1197 233 L 1193 228 L 1199 231 L 1195 246 L 1202 261 L 1207 261 L 1217 255 L 1220 263 L 1219 257 L 1221 257 L 1222 266 L 1225 270 L 1221 268 L 1224 271 L 1224 276 L 1221 277 L 1222 275 L 1220 275 L 1220 277 L 1226 279 L 1224 278 L 1225 270 L 1226 277 L 1234 279 L 1230 282 L 1235 278 L 1240 285 L 1238 286 L 1240 287 L 1244 281 L 1248 282 L 1242 281 L 1240 284 L 1235 276 L 1234 279 L 1231 276 L 1227 277 L 1219 253 L 1214 253 L 1210 256 L 1218 253 L 1219 257 L 1215 255 L 1212 258 L 1203 259 L 1201 251 L 1198 248 L 1201 251 L 1200 257 L 1199 252 L 1196 250 L 1200 235 L 1194 225 L 1189 222 L 1192 219 L 1202 224 L 1201 221 L 1207 221 L 1207 224 L 1209 216 L 1211 216 L 1211 220 L 1210 215 L 1214 211 L 1219 213 L 1216 212 L 1224 212 L 1226 210 L 1232 226 L 1229 222 L 1230 218 L 1238 228 L 1246 227 L 1246 229 L 1243 229 L 1247 230 L 1260 228 L 1261 233 L 1267 236 L 1272 236 L 1273 233 L 1282 234 L 1285 237 L 1284 242 L 1285 240 L 1288 245 L 1294 244 L 1297 247 L 1296 250 L 1293 246 L 1287 247 L 1285 244 L 1287 247 L 1293 246 L 1295 248 L 1297 256 L 1293 258 L 1303 258 L 1308 247 L 1310 248 L 1309 255 L 1311 255 L 1310 247 L 1305 250 L 1304 248 L 1307 245 L 1311 245 L 1312 250 L 1312 244 L 1305 246 L 1301 256 L 1298 253 L 1304 256 L 1300 258 L 1295 252 L 1297 251 L 1296 245 L 1287 244 L 1287 235 L 1285 233 L 1272 231 L 1268 234 L 1263 231 L 1262 226 L 1258 225 L 1252 228 L 1239 228 L 1231 221 L 1229 207 L 1221 211 L 1216 210 L 1215 212 L 1211 206 L 1222 201 L 1223 196"/>
<path d="M 945 395 L 942 399 L 942 409 L 939 412 L 935 411 L 932 416 L 928 413 L 916 412 L 917 410 L 919 411 L 917 410 L 918 408 L 926 405 L 917 409 L 907 404 L 904 408 L 902 407 L 903 410 L 905 407 L 912 409 L 906 419 L 908 428 L 906 430 L 905 428 L 897 428 L 895 430 L 897 428 L 904 430 L 898 430 L 895 435 L 894 432 L 895 439 L 892 441 L 895 449 L 893 451 L 892 448 L 888 448 L 889 445 L 887 448 L 881 443 L 884 442 L 881 442 L 880 445 L 878 444 L 882 445 L 880 447 L 883 448 L 883 445 L 886 449 L 890 449 L 893 452 L 895 449 L 898 449 L 901 455 L 900 460 L 892 461 L 890 459 L 892 454 L 889 456 L 891 457 L 890 459 L 885 461 L 884 459 L 887 458 L 884 460 L 891 460 L 894 463 L 898 463 L 897 461 L 901 462 L 901 455 L 903 463 L 900 464 L 903 463 L 901 449 L 905 449 L 906 453 L 908 451 L 906 451 L 905 447 L 907 445 L 904 448 L 895 449 L 893 445 L 897 447 L 894 442 L 897 440 L 896 432 L 898 430 L 908 431 L 918 436 L 923 442 L 929 441 L 936 446 L 935 449 L 932 447 L 934 448 L 930 456 L 932 468 L 931 455 L 935 462 L 933 470 L 935 464 L 936 469 L 935 463 L 942 459 L 939 461 L 936 457 L 938 461 L 935 462 L 934 458 L 932 458 L 936 446 L 931 442 L 932 440 L 931 442 L 925 441 L 913 434 L 921 436 L 921 433 L 930 433 L 916 434 L 910 430 L 914 433 L 911 434 L 907 430 L 910 424 L 911 426 L 910 428 L 911 424 L 908 421 L 914 411 L 922 416 L 927 415 L 931 418 L 934 418 L 943 407 L 943 412 L 946 397 L 944 396 L 946 395"/>
<path d="M 1143 591 L 1138 600 L 1136 599 L 1141 592 L 1136 599 L 1130 600 L 1128 604 L 1124 601 L 1127 599 L 1120 601 L 1115 600 L 1114 597 L 1115 600 L 1120 601 L 1115 602 L 1121 603 L 1114 604 L 1110 601 L 1111 597 L 1113 601 L 1111 596 L 1110 598 L 1107 597 L 1104 601 L 1103 598 L 1108 595 L 1100 602 L 1102 604 L 1108 597 L 1113 604 L 1123 603 L 1127 607 L 1123 613 L 1125 616 L 1124 611 L 1132 616 L 1128 617 L 1132 619 L 1135 631 L 1128 637 L 1118 637 L 1112 645 L 1115 654 L 1101 659 L 1099 663 L 1102 666 L 1104 665 L 1102 670 L 1101 668 L 1103 672 L 1092 692 L 1095 690 L 1095 684 L 1098 682 L 1097 685 L 1102 682 L 1102 677 L 1105 674 L 1103 668 L 1105 664 L 1112 662 L 1117 656 L 1114 646 L 1120 638 L 1131 639 L 1137 635 L 1136 632 L 1138 630 L 1142 630 L 1145 635 L 1145 640 L 1143 640 L 1143 637 L 1143 641 L 1145 640 L 1147 643 L 1145 640 L 1146 634 L 1149 648 L 1161 650 L 1166 644 L 1172 650 L 1168 649 L 1170 653 L 1166 650 L 1162 653 L 1174 652 L 1169 647 L 1169 643 L 1164 644 L 1165 641 L 1169 641 L 1165 641 L 1159 649 L 1149 648 L 1149 644 L 1153 647 L 1160 643 L 1154 644 L 1152 647 L 1149 644 L 1145 630 L 1136 627 L 1134 615 L 1128 615 L 1125 612 L 1134 602 L 1137 603 L 1135 602 L 1140 598 L 1146 601 L 1140 598 L 1143 592"/>
<path d="M 1078 493 L 1070 496 L 1072 501 L 1070 509 L 1072 510 L 1067 512 L 1067 519 L 1062 521 L 1058 518 L 1057 521 L 1059 518 L 1060 523 L 1066 525 L 1065 531 L 1064 526 L 1058 523 L 1064 527 L 1063 533 L 1070 537 L 1076 536 L 1077 541 L 1079 540 L 1077 544 L 1078 550 L 1072 552 L 1068 557 L 1082 546 L 1079 553 L 1073 554 L 1068 560 L 1065 557 L 1063 558 L 1066 559 L 1060 562 L 1066 559 L 1071 566 L 1081 571 L 1075 578 L 1082 595 L 1084 594 L 1085 597 L 1065 600 L 1063 606 L 1059 603 L 1061 606 L 1054 609 L 1056 611 L 1051 609 L 1048 612 L 1050 610 L 1062 609 L 1066 606 L 1067 602 L 1076 600 L 1084 604 L 1076 600 L 1077 598 L 1084 600 L 1080 600 L 1078 597 L 1085 598 L 1081 586 L 1082 581 L 1081 584 L 1077 578 L 1083 573 L 1083 569 L 1077 567 L 1069 560 L 1073 554 L 1084 552 L 1080 551 L 1082 546 L 1078 543 L 1079 534 L 1071 534 L 1078 533 L 1078 539 L 1077 535 L 1071 537 L 1066 532 L 1066 523 L 1064 524 L 1059 521 L 1066 521 L 1067 513 L 1072 510 L 1072 501 L 1074 501 L 1073 507 L 1073 499 L 1077 496 L 1082 505 L 1086 505 L 1089 502 L 1100 503 L 1101 505 L 1101 503 L 1096 504 L 1095 498 L 1093 502 L 1086 501 L 1084 503 L 1079 493"/>
<path d="M 536 437 L 538 438 L 533 438 L 534 440 L 529 439 L 531 441 L 519 440 L 521 441 L 507 442 L 495 446 L 484 455 L 478 453 L 463 455 L 456 458 L 457 460 L 452 464 L 432 461 L 423 464 L 428 464 L 425 466 L 410 468 L 413 464 L 421 464 L 413 464 L 396 476 L 394 475 L 394 477 L 404 469 L 406 470 L 402 475 L 394 479 L 388 490 L 375 491 L 375 489 L 385 489 L 371 488 L 367 490 L 375 489 L 367 492 L 373 492 L 372 490 L 388 490 L 392 484 L 394 486 L 392 483 L 396 478 L 400 478 L 396 481 L 399 482 L 397 481 L 401 479 L 399 477 L 406 470 L 414 466 L 439 463 L 442 466 L 454 466 L 456 468 L 454 466 L 458 463 L 461 465 L 458 462 L 463 457 L 474 455 L 486 456 L 490 454 L 486 454 L 492 448 L 494 449 L 491 452 L 496 448 L 499 450 L 496 446 L 505 446 L 505 448 L 508 444 L 514 444 L 507 444 L 507 442 L 518 443 L 536 439 L 545 439 L 548 442 L 546 439 L 541 438 L 546 437 L 537 437"/>
<path d="M 1059 314 L 1056 324 L 1052 327 L 1056 324 L 1057 319 L 1058 325 L 1053 329 L 1052 334 L 1051 329 L 1051 337 L 1055 345 L 1046 347 L 1043 351 L 1039 351 L 1029 357 L 1026 357 L 1021 349 L 1017 349 L 1013 360 L 1009 362 L 1009 364 L 1012 362 L 1012 365 L 1019 351 L 1022 354 L 1021 357 L 1029 359 L 1030 356 L 1034 355 L 1035 357 L 1039 355 L 1040 351 L 1045 352 L 1048 349 L 1053 349 L 1046 348 L 1056 345 L 1055 340 L 1058 342 L 1058 351 L 1056 351 L 1056 348 L 1056 352 L 1060 352 L 1061 354 L 1057 355 L 1061 354 L 1062 356 L 1052 360 L 1053 355 L 1055 355 L 1052 356 L 1051 360 L 1055 365 L 1057 365 L 1055 363 L 1062 364 L 1061 369 L 1059 365 L 1060 371 L 1062 370 L 1061 376 L 1059 376 L 1058 371 L 1059 376 L 1057 378 L 1060 377 L 1055 382 L 1053 381 L 1055 379 L 1053 381 L 1050 380 L 1053 383 L 1046 380 L 1044 390 L 1040 393 L 1040 398 L 1046 402 L 1043 399 L 1046 398 L 1052 410 L 1048 400 L 1042 394 L 1046 391 L 1048 382 L 1054 383 L 1059 379 L 1060 381 L 1063 379 L 1060 379 L 1062 364 L 1053 361 L 1063 355 L 1063 351 L 1060 352 L 1058 350 L 1059 341 L 1056 341 L 1053 336 L 1053 329 L 1061 319 L 1060 314"/>
<path d="M 976 592 L 974 600 L 964 598 L 966 599 L 958 604 L 953 614 L 951 613 L 953 609 L 952 612 L 948 602 L 949 610 L 943 599 L 946 602 L 949 614 L 951 614 L 953 634 L 949 630 L 952 635 L 949 639 L 949 644 L 949 639 L 952 635 L 951 642 L 955 644 L 954 649 L 953 645 L 951 646 L 953 646 L 951 653 L 955 650 L 952 655 L 955 653 L 955 643 L 951 642 L 954 629 L 953 614 L 956 607 L 964 600 L 968 603 L 973 602 L 969 603 L 968 601 L 970 599 L 975 600 L 976 597 L 977 600 L 976 596 L 979 594 L 996 599 L 994 601 L 987 599 L 988 601 L 997 599 L 1004 604 L 1007 604 L 1009 601 L 1013 602 L 1018 598 L 1019 602 L 1017 601 L 1014 604 L 1010 603 L 1008 606 L 1005 606 L 1014 604 L 1017 601 L 1022 604 L 1020 605 L 1021 607 L 1025 608 L 1020 609 L 1018 604 L 1020 609 L 1029 607 L 1032 601 L 1034 604 L 1032 606 L 1035 602 L 1036 605 L 1033 608 L 1036 603 L 1034 599 L 1031 599 L 1022 607 L 1019 598 L 1007 603 L 1005 602 L 1006 600 L 1004 604 L 998 595 L 980 595 L 980 593 L 983 593 L 977 592"/>
<path d="M 785 396 L 786 402 L 781 398 L 779 402 L 774 400 L 780 402 L 782 399 L 792 409 L 804 415 L 801 417 L 803 419 L 804 416 L 808 416 L 794 409 L 796 408 L 806 414 L 808 413 L 810 417 L 807 422 L 811 423 L 809 425 L 814 422 L 819 427 L 816 423 L 819 422 L 823 432 L 821 434 L 820 429 L 821 431 L 818 435 L 820 435 L 820 438 L 826 445 L 824 450 L 827 452 L 824 450 L 825 447 L 831 452 L 825 459 L 823 458 L 828 454 L 824 457 L 820 456 L 823 453 L 818 453 L 816 456 L 811 454 L 816 457 L 819 454 L 821 457 L 818 458 L 822 456 L 824 463 L 821 466 L 817 465 L 815 467 L 815 477 L 813 479 L 810 475 L 811 473 L 809 473 L 812 470 L 809 471 L 812 477 L 808 480 L 808 487 L 809 483 L 816 477 L 817 468 L 819 467 L 817 466 L 823 465 L 824 460 L 826 465 L 821 468 L 826 465 L 825 459 L 830 455 L 831 451 L 826 449 L 825 443 L 820 438 L 823 432 L 820 422 L 812 416 L 815 419 L 811 419 L 814 421 L 811 423 L 808 420 L 810 417 L 808 413 L 811 412 L 806 414 L 796 408 L 792 409 L 786 402 L 788 401 L 793 407 L 790 403 L 794 399 L 789 402 L 784 397"/>
<path d="M 1006 365 L 998 369 L 995 374 L 992 373 L 992 370 L 988 369 L 988 371 L 992 371 L 994 376 L 991 380 L 989 379 L 989 383 L 984 387 L 984 394 L 975 402 L 972 400 L 976 406 L 976 410 L 974 410 L 974 407 L 975 412 L 979 415 L 973 439 L 972 431 L 974 429 L 972 431 L 973 449 L 977 461 L 968 481 L 971 481 L 969 486 L 973 493 L 973 501 L 980 509 L 976 500 L 977 505 L 973 501 L 975 492 L 971 483 L 973 481 L 983 482 L 973 484 L 986 482 L 993 477 L 997 477 L 1002 472 L 1000 475 L 998 474 L 1000 471 L 998 474 L 995 472 L 997 473 L 994 475 L 997 473 L 999 475 L 990 478 L 986 482 L 982 481 L 987 478 L 979 482 L 972 480 L 972 475 L 979 461 L 975 449 L 975 438 L 978 436 L 975 438 L 974 433 L 981 420 L 981 413 L 976 409 L 976 406 L 983 398 L 985 399 L 985 390 L 990 386 L 992 378 L 1001 370 L 997 374 L 997 370 L 1007 365"/>
<path d="M 711 517 L 707 522 L 706 520 L 706 524 L 704 521 L 705 536 L 703 542 L 698 546 L 698 551 L 692 550 L 690 555 L 687 550 L 683 550 L 682 553 L 683 551 L 684 555 L 682 555 L 682 558 L 679 555 L 671 555 L 669 553 L 672 544 L 671 547 L 664 539 L 663 545 L 659 545 L 659 542 L 653 539 L 659 542 L 655 545 L 664 546 L 664 544 L 668 544 L 671 547 L 668 549 L 671 555 L 679 555 L 683 560 L 684 553 L 687 554 L 686 550 L 690 555 L 692 551 L 693 555 L 694 552 L 696 554 L 700 553 L 700 547 L 709 536 L 712 538 L 717 537 L 732 559 L 729 560 L 728 558 L 730 568 L 733 566 L 734 568 L 735 566 L 732 567 L 729 564 L 731 562 L 729 564 L 728 561 L 734 560 L 730 557 L 731 555 L 736 559 L 731 555 L 726 544 L 719 536 L 715 538 L 708 536 L 705 539 L 705 543 L 702 543 L 703 538 L 706 536 L 704 525 L 709 524 L 711 518 L 715 520 L 716 518 L 718 521 L 721 519 L 724 522 L 721 519 L 711 518"/>
<path d="M 715 303 L 711 306 L 713 316 L 707 322 L 700 324 L 695 322 L 677 336 L 672 331 L 674 327 L 676 329 L 672 328 L 673 333 L 677 336 L 672 337 L 672 339 L 678 335 L 680 336 L 677 339 L 676 346 L 674 348 L 668 347 L 674 344 L 673 346 L 660 347 L 664 348 L 660 350 L 658 355 L 658 350 L 656 351 L 655 368 L 653 372 L 650 372 L 653 372 L 655 368 L 656 372 L 654 375 L 650 374 L 657 376 L 654 375 L 657 374 L 655 373 L 655 362 L 657 362 L 657 367 L 658 355 L 660 350 L 665 348 L 664 346 L 669 348 L 667 349 L 674 348 L 679 338 L 678 347 L 681 336 L 686 335 L 690 329 L 691 331 L 690 328 L 694 325 L 701 326 L 703 324 L 701 326 L 692 326 L 693 323 L 700 324 L 710 320 L 711 322 L 709 323 L 713 320 L 717 323 L 719 316 L 723 312 L 728 312 L 721 312 L 719 319 L 714 321 L 713 309 L 711 310 L 711 306 L 714 304"/>
<path d="M 810 488 L 811 493 L 809 495 L 789 490 L 785 494 L 784 499 L 783 494 L 785 503 L 788 506 L 794 507 L 791 513 L 788 511 L 786 513 L 793 513 L 794 509 L 795 511 L 794 505 L 799 507 L 797 511 L 800 512 L 793 515 L 794 518 L 803 520 L 797 522 L 795 520 L 802 522 L 811 516 L 810 510 L 812 507 L 810 506 L 810 513 L 807 509 L 809 508 L 808 504 L 816 500 L 810 502 L 810 500 L 816 498 L 806 503 L 806 508 L 810 513 L 805 517 L 810 513 L 811 515 L 807 519 L 803 520 L 802 518 L 798 520 L 794 516 L 801 511 L 801 508 L 801 511 L 799 511 L 798 506 L 803 505 L 799 505 L 796 502 L 798 506 L 788 506 L 784 501 L 785 499 L 790 504 L 786 500 L 785 494 L 788 491 L 791 494 L 811 498 L 815 489 L 813 494 L 807 497 L 811 493 L 810 489"/>
<path d="M 896 377 L 887 383 L 881 395 L 881 410 L 876 414 L 872 412 L 877 411 L 871 411 L 873 413 L 867 418 L 860 417 L 856 420 L 858 425 L 871 428 L 871 432 L 869 432 L 869 429 L 868 433 L 870 438 L 864 443 L 871 439 L 870 435 L 873 438 L 871 435 L 875 433 L 871 435 L 871 428 L 862 424 L 862 426 L 858 425 L 856 420 L 860 418 L 859 423 L 860 420 L 861 422 L 862 419 L 866 420 L 864 419 L 873 413 L 878 417 L 883 412 L 883 396 L 888 388 L 885 388 L 888 382 L 890 383 L 889 385 L 899 379 L 902 387 L 898 393 L 901 389 L 902 391 L 906 390 L 908 393 L 904 389 L 904 380 L 903 383 L 902 380 L 903 390 L 899 379 L 893 383 L 889 382 L 896 377 L 901 378 L 897 377"/>
<path d="M 548 438 L 552 444 L 567 446 L 562 447 L 568 450 L 566 453 L 563 451 L 566 453 L 565 456 L 558 461 L 566 457 L 566 453 L 570 457 L 563 464 L 564 473 L 569 476 L 570 486 L 565 495 L 570 503 L 571 499 L 575 499 L 575 497 L 572 496 L 569 499 L 565 495 L 566 492 L 568 496 L 567 494 L 570 491 L 566 492 L 569 489 L 570 480 L 572 486 L 571 474 L 565 468 L 570 462 L 568 461 L 570 457 L 571 460 L 571 454 L 570 457 L 567 455 L 568 449 L 570 451 L 580 445 L 593 452 L 589 448 L 593 441 L 597 443 L 591 442 L 589 448 L 580 443 L 578 446 L 577 444 L 571 447 L 576 445 L 575 449 L 570 449 L 566 447 L 568 444 L 572 444 L 552 444 L 549 439"/>
<path d="M 1191 46 L 1187 47 L 1189 52 L 1180 62 L 1187 68 L 1191 63 L 1196 64 L 1192 65 L 1189 70 L 1186 70 L 1178 63 L 1178 60 L 1187 50 L 1185 49 L 1187 51 L 1181 57 L 1175 51 L 1181 57 L 1178 63 L 1186 70 L 1184 71 L 1180 68 L 1182 70 L 1179 71 L 1184 71 L 1181 74 L 1173 74 L 1176 77 L 1183 72 L 1186 75 L 1187 73 L 1185 75 L 1183 72 L 1190 70 L 1194 65 L 1200 70 L 1199 76 L 1200 79 L 1202 77 L 1204 82 L 1203 84 L 1201 81 L 1204 89 L 1202 91 L 1205 91 L 1203 88 L 1204 83 L 1207 91 L 1211 94 L 1218 91 L 1228 92 L 1225 92 L 1225 90 L 1228 90 L 1217 89 L 1214 92 L 1209 91 L 1205 87 L 1201 76 L 1202 68 L 1194 62 L 1188 65 L 1188 68 L 1180 61 L 1185 57 L 1190 60 L 1190 58 L 1185 56 L 1189 53 L 1188 48 L 1190 47"/>
<path d="M 1134 520 L 1132 526 L 1129 526 L 1127 523 L 1125 525 L 1127 524 L 1129 526 L 1127 527 L 1134 528 L 1135 522 L 1137 526 L 1142 526 L 1144 530 L 1141 533 L 1132 531 L 1132 540 L 1127 543 L 1127 546 L 1136 552 L 1136 557 L 1137 554 L 1141 561 L 1145 558 L 1147 559 L 1140 563 L 1137 559 L 1140 563 L 1144 563 L 1146 560 L 1153 563 L 1148 569 L 1151 574 L 1149 579 L 1145 581 L 1148 582 L 1139 582 L 1139 590 L 1140 587 L 1142 588 L 1142 583 L 1148 582 L 1151 575 L 1148 569 L 1150 568 L 1151 571 L 1152 569 L 1150 568 L 1154 561 L 1148 559 L 1148 557 L 1141 561 L 1138 557 L 1137 549 L 1129 545 L 1134 541 L 1134 538 L 1134 541 L 1130 542 L 1133 531 L 1137 532 L 1133 536 L 1134 533 L 1143 534 L 1147 530 L 1151 534 L 1151 526 L 1149 530 L 1146 529 L 1142 534 L 1143 527 L 1145 527 L 1135 520"/>
<path d="M 938 552 L 939 556 L 932 563 L 931 561 L 929 565 L 931 562 L 930 570 L 928 570 L 928 567 L 924 575 L 917 574 L 915 580 L 914 578 L 914 584 L 909 591 L 905 590 L 909 588 L 905 590 L 901 586 L 898 586 L 901 587 L 898 590 L 892 587 L 886 588 L 885 586 L 893 585 L 897 588 L 892 584 L 886 585 L 886 590 L 883 590 L 886 598 L 878 601 L 879 607 L 887 613 L 886 616 L 888 618 L 887 614 L 890 617 L 896 616 L 889 616 L 885 610 L 886 608 L 881 606 L 883 608 L 881 609 L 879 607 L 883 601 L 888 599 L 889 593 L 886 592 L 886 588 L 892 587 L 895 590 L 900 588 L 905 594 L 910 593 L 914 589 L 917 574 L 922 575 L 918 576 L 918 580 L 919 576 L 927 576 L 931 567 L 935 571 L 932 570 L 931 566 L 933 561 L 939 556 L 939 553"/>
<path d="M 896 477 L 893 488 L 898 492 L 893 501 L 896 508 L 888 508 L 886 503 L 889 501 L 886 503 L 884 500 L 888 505 L 882 510 L 882 523 L 877 523 L 876 529 L 871 530 L 876 531 L 868 534 L 866 533 L 869 531 L 867 530 L 866 533 L 863 530 L 854 531 L 853 521 L 851 525 L 853 531 L 863 530 L 865 534 L 857 532 L 867 535 L 886 528 L 887 530 L 886 528 L 883 530 L 879 529 L 889 525 L 882 528 L 878 526 L 884 523 L 886 517 L 884 512 L 886 510 L 891 510 L 892 513 L 897 511 L 896 507 L 898 506 L 895 502 L 898 496 L 896 500 L 895 498 L 898 493 L 900 494 L 900 490 L 895 486 L 898 478 L 896 488 L 893 488 L 896 478"/>
<path d="M 978 511 L 977 516 L 978 514 L 982 515 L 977 520 L 967 519 L 970 516 L 976 518 L 973 516 L 967 517 L 968 515 L 966 518 L 958 517 L 968 529 L 959 533 L 958 530 L 963 529 L 958 530 L 956 548 L 959 533 L 970 530 L 969 524 L 963 521 L 971 521 L 969 520 L 971 518 L 977 520 L 980 516 L 987 522 L 988 527 L 989 525 L 995 530 L 990 530 L 997 534 L 994 531 L 996 530 L 1004 539 L 1015 537 L 1011 537 L 1011 535 L 1017 536 L 1017 534 L 1001 536 L 999 534 L 1002 534 L 998 532 L 1001 531 L 998 532 L 989 525 L 988 520 L 986 521 L 985 519 L 987 518 L 981 514 L 981 511 L 981 514 L 978 514 L 978 512"/>
<path d="M 604 394 L 602 396 L 602 405 L 603 401 L 607 402 L 608 411 L 612 413 L 606 412 L 606 408 L 606 412 L 611 414 L 619 423 L 619 427 L 609 430 L 612 431 L 609 433 L 610 436 L 607 436 L 607 433 L 607 436 L 611 439 L 610 436 L 618 438 L 619 442 L 610 443 L 610 441 L 617 440 L 605 440 L 610 441 L 602 442 L 601 447 L 600 441 L 604 437 L 602 437 L 600 441 L 602 449 L 595 451 L 601 452 L 595 453 L 601 453 L 604 450 L 603 442 L 619 442 L 618 438 L 614 438 L 609 434 L 614 430 L 619 430 L 611 430 L 619 428 L 620 425 L 621 429 L 617 416 L 619 413 L 616 416 L 608 410 L 609 400 L 605 396 L 610 395 L 605 394"/>
<path d="M 843 622 L 841 631 L 835 632 L 833 635 L 833 643 L 834 634 L 836 643 L 827 653 L 836 643 L 835 636 L 843 632 L 845 624 L 850 624 L 851 631 L 855 633 L 853 645 L 853 641 L 858 644 L 864 642 L 862 641 L 866 636 L 866 641 L 867 638 L 872 640 L 871 652 L 872 640 L 867 637 L 870 636 L 864 635 L 870 634 L 859 636 L 864 635 L 865 637 L 862 641 L 856 643 L 853 641 L 853 637 L 857 641 L 855 639 L 857 633 L 855 637 L 855 633 L 850 629 L 854 622 L 855 625 L 852 628 L 854 630 L 852 628 L 855 622 L 852 625 L 844 624 L 843 628 L 843 622 L 850 622 L 844 622"/>
<path d="M 1226 154 L 1229 155 L 1220 165 L 1218 164 L 1219 166 L 1209 176 L 1206 176 L 1201 181 L 1197 180 L 1200 181 L 1199 187 L 1210 200 L 1213 200 L 1219 194 L 1221 197 L 1218 194 L 1216 198 L 1214 197 L 1215 195 L 1211 198 L 1207 191 L 1206 193 L 1202 189 L 1204 188 L 1201 184 L 1208 178 L 1201 184 L 1202 189 L 1199 187 L 1199 183 L 1206 176 L 1211 177 L 1223 165 L 1218 170 L 1216 169 L 1223 162 L 1229 161 L 1224 161 L 1229 155 L 1233 157 L 1232 163 L 1231 158 L 1229 158 L 1231 158 L 1232 166 L 1237 166 L 1238 154 L 1237 161 L 1236 154 L 1236 167 L 1232 166 L 1233 162 L 1235 165 L 1233 157 L 1227 154"/>
<path d="M 1099 697 L 1098 704 L 1093 709 L 1090 708 L 1091 701 L 1086 702 L 1088 703 L 1086 716 L 1083 711 L 1070 713 L 1068 711 L 1070 709 L 1067 709 L 1069 714 L 1074 714 L 1054 717 L 1058 710 L 1061 713 L 1058 710 L 1061 705 L 1059 708 L 1058 706 L 1053 716 L 1053 712 L 1051 718 L 1061 719 L 1061 722 L 1058 721 L 1062 725 L 1061 719 L 1075 714 L 1074 712 L 1082 713 L 1084 718 L 1088 718 L 1089 713 L 1088 718 L 1083 717 L 1084 713 L 1087 716 L 1088 709 L 1093 709 L 1099 713 L 1096 714 L 1099 713 L 1102 716 L 1098 712 L 1101 711 L 1097 710 L 1096 712 L 1093 709 L 1098 705 L 1099 698"/>
<path d="M 1218 286 L 1208 293 L 1201 290 L 1197 292 L 1196 297 L 1194 295 L 1190 297 L 1186 295 L 1190 297 L 1188 300 L 1182 300 L 1175 305 L 1180 304 L 1173 310 L 1173 306 L 1165 311 L 1163 315 L 1163 308 L 1161 309 L 1155 302 L 1150 301 L 1148 306 L 1149 304 L 1151 312 L 1148 311 L 1151 315 L 1149 319 L 1147 315 L 1150 322 L 1150 318 L 1152 322 L 1149 308 L 1151 303 L 1159 310 L 1160 316 L 1165 317 L 1180 304 L 1185 306 L 1182 304 L 1184 302 L 1189 303 L 1193 297 L 1197 299 L 1202 292 L 1205 295 L 1209 295 L 1219 290 L 1216 289 L 1218 287"/>
<path d="M 917 612 L 916 618 L 910 617 L 910 620 L 911 617 L 915 619 L 918 612 L 918 618 L 919 614 L 922 615 L 921 618 L 920 616 L 921 622 L 916 621 L 921 624 L 920 619 L 928 617 L 923 618 L 922 615 L 925 616 L 929 613 L 932 616 L 932 623 L 941 629 L 939 632 L 935 630 L 938 629 L 932 628 L 938 631 L 940 636 L 940 631 L 944 635 L 942 636 L 945 636 L 947 633 L 948 635 L 945 632 L 945 634 L 941 633 L 943 630 L 942 626 L 942 631 L 940 625 L 939 627 L 937 626 L 938 623 L 944 625 L 942 623 L 947 622 L 936 623 L 934 617 L 935 625 L 932 622 L 930 612 L 925 616 L 922 612 L 918 612"/>
<path d="M 744 340 L 746 350 L 756 350 L 760 346 L 762 347 L 759 346 L 754 350 L 758 344 L 762 344 L 764 348 L 778 344 L 782 348 L 780 351 L 781 356 L 779 354 L 774 362 L 769 363 L 769 367 L 776 367 L 778 370 L 775 371 L 778 370 L 782 374 L 788 375 L 785 374 L 791 373 L 792 377 L 791 373 L 782 374 L 778 369 L 784 372 L 775 364 L 784 349 L 779 342 L 764 346 L 763 344 L 758 344 L 756 347 L 753 346 L 754 348 L 748 348 L 746 343 L 747 348 L 753 349 L 746 350 L 743 342 L 745 340"/>
<path d="M 901 695 L 897 696 L 898 702 L 893 705 L 898 702 L 900 696 L 904 695 L 906 698 L 901 698 L 897 706 L 890 709 L 884 708 L 891 706 L 890 704 L 889 707 L 883 708 L 882 714 L 879 716 L 873 713 L 869 714 L 869 711 L 866 711 L 877 718 L 881 718 L 883 716 L 880 718 L 876 717 L 883 714 L 886 709 L 899 705 L 900 699 L 903 697 L 905 700 L 907 699 L 906 703 L 908 706 L 916 706 L 918 708 L 921 708 L 929 698 L 933 701 L 926 697 L 919 706 L 917 704 L 910 704 L 906 697 L 902 695"/>
<path d="M 889 529 L 895 533 L 890 534 L 888 532 L 894 534 L 906 531 L 908 537 L 912 538 L 914 536 L 919 538 L 923 544 L 930 543 L 927 543 L 927 541 L 938 540 L 939 543 L 932 542 L 934 543 L 931 547 L 932 553 L 937 554 L 932 559 L 937 555 L 932 550 L 936 551 L 933 548 L 935 545 L 931 549 L 935 542 L 938 546 L 946 547 L 944 546 L 946 545 L 938 540 L 924 542 L 920 536 L 916 535 L 920 536 L 920 539 L 916 538 L 914 534 L 912 537 L 907 529 L 893 532 L 889 530"/>
<path d="M 844 376 L 840 380 L 835 380 L 831 383 L 845 376 L 853 378 L 855 387 L 853 387 L 853 384 L 848 393 L 845 393 L 845 395 L 854 388 L 848 396 L 843 398 L 844 404 L 840 410 L 847 412 L 850 416 L 844 414 L 845 416 L 847 415 L 854 421 L 852 419 L 860 415 L 851 417 L 850 413 L 854 414 L 855 412 L 856 414 L 854 410 L 852 410 L 854 412 L 849 414 L 840 410 L 844 404 L 843 399 L 855 387 L 855 381 L 853 381 L 852 376 L 845 376"/>
<path d="M 1245 283 L 1243 286 L 1245 283 L 1247 284 L 1251 297 L 1256 298 L 1257 313 L 1255 315 L 1249 314 L 1245 310 L 1244 312 L 1239 311 L 1237 314 L 1240 311 L 1243 313 L 1246 310 L 1248 314 L 1253 314 L 1256 317 L 1254 321 L 1253 319 L 1259 322 L 1259 320 L 1255 320 L 1258 318 L 1255 316 L 1259 314 L 1257 313 L 1258 310 L 1265 315 L 1264 318 L 1261 315 L 1265 323 L 1264 312 L 1261 313 L 1258 307 L 1258 310 L 1256 310 L 1256 296 L 1258 296 L 1258 305 L 1258 296 L 1254 294 L 1257 293 L 1254 294 L 1246 283"/>
<path d="M 1117 303 L 1118 311 L 1124 314 L 1122 316 L 1124 325 L 1126 327 L 1139 328 L 1142 333 L 1139 342 L 1149 350 L 1148 348 L 1152 347 L 1155 350 L 1155 355 L 1159 355 L 1155 354 L 1153 347 L 1155 346 L 1152 345 L 1154 346 L 1151 347 L 1150 345 L 1149 347 L 1141 340 L 1144 334 L 1143 331 L 1150 327 L 1151 324 L 1142 333 L 1139 328 L 1132 328 L 1133 326 L 1126 327 L 1124 325 L 1125 322 L 1127 325 L 1130 325 L 1127 325 L 1124 319 L 1126 311 L 1121 311 L 1121 305 L 1118 303"/>
<path d="M 1029 692 L 1023 698 L 1024 710 L 1017 705 L 1018 703 L 1012 703 L 1005 707 L 1006 714 L 1002 715 L 1006 717 L 1004 719 L 1000 717 L 999 719 L 1001 721 L 1000 717 L 1006 718 L 1008 714 L 1007 708 L 1011 708 L 1013 711 L 1011 712 L 1016 711 L 1012 710 L 1011 707 L 1013 705 L 1017 709 L 1020 709 L 1018 707 L 1023 709 L 1023 716 L 1020 717 L 1030 716 L 1023 715 L 1027 710 L 1025 700 L 1030 698 L 1026 697 L 1031 696 L 1033 698 L 1028 696 L 1028 693"/>
<path d="M 963 572 L 960 574 L 964 574 L 956 582 L 954 581 L 958 575 L 954 581 L 943 579 L 947 580 L 939 582 L 938 586 L 938 580 L 937 585 L 938 589 L 938 586 L 940 586 L 937 598 L 935 598 L 941 599 L 937 597 L 939 592 L 939 596 L 945 597 L 947 600 L 947 597 L 939 596 L 941 592 L 939 592 L 939 583 L 947 580 L 953 583 L 949 579 L 956 582 L 962 575 L 966 574 L 964 572"/>
<path d="M 650 376 L 647 381 L 644 380 L 640 385 L 631 387 L 635 387 L 635 389 L 628 391 L 626 390 L 629 388 L 626 390 L 621 389 L 612 392 L 615 393 L 612 394 L 635 389 L 648 382 L 654 383 L 658 379 L 668 379 L 666 381 L 669 381 L 669 379 L 665 378 L 659 380 L 661 376 L 657 380 L 651 381 L 652 377 L 650 380 L 650 377"/>
<path d="M 736 598 L 737 601 L 732 612 L 732 619 L 728 617 L 726 624 L 727 626 L 726 620 L 728 617 L 732 620 L 734 614 L 732 612 L 736 608 L 735 627 L 736 631 L 741 634 L 744 629 L 740 634 L 738 623 L 742 619 L 738 621 L 738 603 L 736 608 L 735 604 L 739 600 L 738 598 L 736 599"/>
<path d="M 893 635 L 892 640 L 894 642 L 883 646 L 875 643 L 872 637 L 874 643 L 878 644 L 873 646 L 872 654 L 868 654 L 868 652 L 864 654 L 855 653 L 862 653 L 862 655 L 858 655 L 866 657 L 866 655 L 862 655 L 865 653 L 872 654 L 874 645 L 879 647 L 892 646 L 888 644 L 894 643 L 892 640 L 893 635 L 895 638 L 894 635"/>
<path d="M 819 654 L 821 655 L 820 661 L 818 661 L 818 656 L 816 660 L 819 662 L 819 666 L 819 662 L 821 662 L 821 675 L 816 682 L 811 683 L 809 680 L 808 684 L 809 680 L 811 683 L 814 683 L 823 677 L 823 674 L 823 677 L 819 679 L 824 665 L 835 672 L 831 667 L 829 669 L 827 665 L 821 665 L 820 657 L 825 654 L 820 654"/>
<path d="M 1049 409 L 1047 410 L 1051 412 L 1045 419 L 1047 419 L 1046 428 L 1039 431 L 1039 435 L 1042 437 L 1041 440 L 1037 436 L 1037 430 L 1039 429 L 1037 430 L 1037 436 L 1041 440 L 1040 444 L 1041 442 L 1042 444 L 1052 443 L 1041 442 L 1042 439 L 1043 441 L 1042 437 L 1051 432 L 1042 437 L 1039 434 L 1041 430 L 1046 428 L 1046 422 L 1053 414 L 1050 410"/>
<path d="M 704 502 L 703 508 L 700 509 L 703 508 L 708 512 L 707 518 L 709 517 L 707 513 L 709 511 L 712 513 L 712 515 L 705 507 L 707 503 L 709 506 L 713 506 L 714 510 L 715 507 L 718 513 L 721 510 L 724 517 L 722 517 L 725 514 L 722 510 L 725 509 L 721 510 L 719 507 L 721 510 L 719 513 L 716 507 L 707 503 L 705 504 L 708 510 L 706 511 L 703 508 L 703 503 L 705 502"/>
<path d="M 1239 80 L 1231 89 L 1239 84 L 1241 86 L 1244 85 L 1241 86 L 1240 82 L 1245 83 L 1249 89 L 1246 92 L 1249 90 L 1256 98 L 1253 102 L 1254 104 L 1257 101 L 1253 103 L 1257 96 L 1258 98 L 1252 90 L 1253 92 L 1250 92 L 1247 85 L 1251 88 L 1247 82 L 1247 85 L 1240 82 L 1237 86 L 1236 84 L 1239 80 L 1245 81 L 1240 80"/>
<path d="M 1080 435 L 1077 438 L 1078 443 L 1076 446 L 1068 448 L 1063 445 L 1075 449 L 1077 454 L 1077 449 L 1082 451 L 1091 446 L 1093 448 L 1090 452 L 1088 451 L 1089 448 L 1087 452 L 1085 451 L 1085 453 L 1080 455 L 1088 451 L 1089 453 L 1084 456 L 1092 451 L 1093 448 L 1088 446 L 1082 451 L 1077 449 L 1079 446 L 1077 438 L 1081 435"/>
<path d="M 1000 734 L 998 737 L 993 738 L 991 744 L 993 740 L 994 743 L 991 752 L 990 747 L 991 753 L 989 753 L 990 758 L 988 760 L 992 751 L 992 759 L 988 762 L 992 759 L 993 744 L 1001 747 L 1001 745 L 994 743 L 996 739 L 1000 740 L 999 743 L 999 739 L 994 741 L 993 738 L 1000 736 L 1003 739 L 1001 734"/>
<path d="M 1354 253 L 1350 254 L 1348 258 L 1345 255 L 1341 255 L 1338 259 L 1331 257 L 1325 266 L 1319 264 L 1317 266 L 1321 267 L 1321 269 L 1324 268 L 1319 266 L 1325 266 L 1327 263 L 1327 268 L 1332 259 L 1340 262 L 1344 257 L 1347 265 L 1347 261 L 1352 266 L 1350 267 L 1352 267 L 1353 265 L 1347 261 L 1349 256 L 1353 254"/>
<path d="M 956 669 L 952 672 L 951 677 L 950 675 L 948 676 L 949 683 L 952 685 L 950 686 L 954 685 L 953 687 L 955 686 L 958 690 L 955 691 L 961 689 L 963 685 L 965 690 L 969 690 L 965 690 L 961 684 L 965 683 L 967 688 L 968 686 L 967 688 L 965 683 L 961 683 L 957 689 L 953 681 L 952 685 L 948 680 L 949 676 L 951 680 L 952 672 L 956 670"/>
<path d="M 1076 456 L 1073 462 L 1066 460 L 1058 464 L 1061 468 L 1058 466 L 1060 463 L 1061 465 L 1066 460 L 1071 462 L 1064 466 L 1073 462 L 1073 464 L 1064 470 L 1063 468 L 1063 470 L 1072 474 L 1076 481 L 1078 480 L 1075 474 L 1065 469 L 1076 463 L 1079 457 L 1082 457 L 1077 456"/>
<path d="M 1188 554 L 1186 558 L 1184 556 L 1183 560 L 1179 559 L 1173 568 L 1165 563 L 1162 566 L 1165 565 L 1168 569 L 1178 573 L 1174 570 L 1176 568 L 1180 572 L 1182 568 L 1189 569 L 1188 564 L 1185 565 L 1188 565 L 1186 569 L 1176 568 L 1179 567 L 1180 561 L 1183 565 L 1183 561 L 1189 554"/>
<path d="M 873 451 L 875 452 L 872 455 L 871 453 L 870 457 L 871 454 L 873 459 L 877 461 L 872 461 L 880 462 L 884 467 L 882 470 L 878 466 L 882 470 L 880 472 L 876 471 L 876 473 L 882 470 L 883 474 L 886 470 L 892 470 L 892 476 L 894 473 L 892 470 L 887 471 L 884 467 L 885 464 L 881 460 L 877 463 L 878 461 L 872 457 L 875 453 L 874 451"/>
<path d="M 918 469 L 916 470 L 917 478 L 908 478 L 909 476 L 907 477 L 905 474 L 900 474 L 904 474 L 905 478 L 898 476 L 903 476 L 906 480 L 915 480 L 906 480 L 905 478 L 918 478 L 919 475 L 920 479 L 918 481 L 920 479 L 919 471 L 931 470 L 919 469"/>
<path d="M 959 541 L 959 550 L 956 553 L 951 549 L 953 553 L 952 550 L 955 553 L 958 552 L 958 555 L 954 555 L 960 553 L 969 560 L 971 566 L 968 573 L 970 567 L 972 567 L 970 575 L 968 575 L 971 574 L 972 560 L 975 558 L 971 559 L 962 552 L 959 542"/>
<path d="M 1045 692 L 1042 698 L 1039 700 L 1039 697 L 1037 700 L 1035 699 L 1037 702 L 1031 701 L 1033 700 L 1037 704 L 1042 698 L 1045 701 L 1043 703 L 1045 701 L 1050 703 L 1050 700 L 1057 701 L 1061 699 L 1063 701 L 1059 704 L 1064 699 L 1064 704 L 1065 700 L 1063 697 L 1049 701 L 1047 699 L 1046 701 L 1044 699 L 1047 697 L 1045 693"/>
<path d="M 604 519 L 612 528 L 622 529 L 627 533 L 634 532 L 643 538 L 653 537 L 655 534 L 661 538 L 657 534 L 652 537 L 643 538 L 637 535 L 635 530 L 628 531 L 624 527 L 614 526 L 610 520 L 606 519 L 608 523 L 604 520"/>
<path d="M 1039 620 L 1040 623 L 1044 624 L 1047 634 L 1036 643 L 1037 648 L 1034 652 L 1034 657 L 1036 658 L 1034 657 L 1035 651 L 1036 656 L 1041 656 L 1043 659 L 1042 656 L 1036 655 L 1038 650 L 1036 652 L 1035 650 L 1049 636 L 1049 632 L 1046 626 L 1046 629 L 1044 629 L 1044 623 L 1039 621"/>
<path d="M 1066 309 L 1062 313 L 1069 312 L 1071 324 L 1081 323 L 1078 322 L 1085 315 L 1088 316 L 1086 319 L 1088 321 L 1088 316 L 1093 314 L 1090 314 L 1089 311 L 1090 314 L 1080 318 L 1077 322 L 1078 324 L 1073 323 L 1072 319 L 1073 323 L 1071 324 L 1071 310 L 1067 309"/>
<path d="M 984 369 L 976 378 L 972 373 L 967 372 L 960 381 L 964 381 L 951 390 L 948 396 L 966 380 L 967 375 L 971 375 L 975 380 L 982 379 L 982 372 L 986 371 L 983 371 L 985 369"/>
<path d="M 1049 606 L 1042 614 L 1034 610 L 1042 615 L 1037 615 L 1038 617 L 1040 616 L 1040 618 L 1042 615 L 1048 619 L 1046 622 L 1041 620 L 1046 623 L 1049 618 L 1058 618 L 1054 616 L 1047 618 L 1044 616 L 1046 613 L 1042 615 L 1052 607 L 1050 607"/>
<path d="M 945 834 L 952 838 L 947 843 L 945 842 L 947 843 L 945 845 L 940 842 L 946 838 L 948 839 L 945 837 L 934 847 L 940 842 L 943 844 L 937 850 L 947 848 L 945 845 L 949 841 L 951 843 L 950 841 L 953 839 L 951 836 L 954 834 L 951 836 L 946 834"/>
<path d="M 764 527 L 761 529 L 762 533 L 759 531 L 763 533 L 766 529 L 770 537 L 773 537 L 775 532 L 787 534 L 785 531 L 785 533 L 781 532 L 782 528 L 779 532 L 779 527 L 778 531 L 771 531 L 773 536 L 770 537 L 769 531 L 763 530 L 765 527 L 770 529 L 765 527"/>
<path d="M 709 495 L 707 501 L 709 496 L 710 502 L 711 497 L 723 500 L 731 517 L 725 504 L 726 502 L 728 505 L 726 499 L 719 498 L 725 498 L 725 503 L 724 500 L 718 500 L 716 497 L 709 496 L 716 495 L 710 495"/>
<path d="M 839 670 L 836 675 L 849 674 L 851 672 L 854 675 L 853 682 L 848 688 L 847 693 L 849 693 L 848 688 L 851 687 L 850 691 L 855 683 L 856 677 L 855 683 L 850 686 L 853 682 L 853 672 L 855 670 L 850 670 L 846 673 L 839 671"/>
<path d="M 1034 539 L 1036 543 L 1034 548 L 1033 546 L 1034 552 L 1038 550 L 1042 554 L 1047 552 L 1052 554 L 1048 562 L 1052 557 L 1055 560 L 1058 560 L 1060 556 L 1061 558 L 1061 556 L 1057 558 L 1054 554 L 1056 558 L 1054 559 L 1050 552 L 1053 552 L 1051 550 L 1044 552 L 1038 550 L 1035 547 L 1036 543 L 1034 540"/>
<path d="M 758 769 L 754 773 L 751 771 L 747 772 L 751 771 L 753 773 L 750 774 L 753 773 L 755 775 L 752 777 L 752 781 L 756 782 L 751 780 L 753 777 L 758 781 L 769 778 L 770 774 L 768 778 L 758 781 L 756 779 L 758 776 L 756 777 L 754 773 L 760 773 L 756 772 L 758 769 L 763 772 L 759 770"/>
<path d="M 733 516 L 736 521 L 744 523 L 736 523 L 746 526 L 749 530 L 754 528 L 752 530 L 748 528 L 752 527 L 754 521 L 758 522 L 759 527 L 763 524 L 759 526 L 758 522 L 754 521 L 751 528 L 743 522 L 736 521 L 733 517"/>
<path d="M 1106 408 L 1099 416 L 1092 417 L 1086 428 L 1080 433 L 1086 428 L 1087 430 L 1083 434 L 1087 435 L 1085 433 L 1089 427 L 1091 430 L 1089 426 L 1093 419 L 1091 421 L 1090 419 L 1099 416 L 1109 408 L 1107 408"/>
<path d="M 747 383 L 747 385 L 748 383 L 753 385 L 749 385 L 747 390 L 741 387 L 741 391 L 742 389 L 747 390 L 750 385 L 754 387 L 759 384 L 771 398 L 774 397 L 778 400 L 761 383 L 755 385 L 748 383"/>
<path d="M 734 305 L 733 308 L 734 310 L 736 309 L 735 316 L 739 325 L 735 329 L 736 336 L 734 336 L 734 334 L 735 338 L 740 340 L 742 339 L 736 336 L 735 329 L 741 325 L 737 331 L 741 328 L 734 306"/>
<path d="M 876 722 L 878 725 L 875 728 L 872 727 L 878 726 L 876 730 L 872 730 L 870 726 L 860 723 L 862 727 L 860 729 L 865 727 L 875 732 L 873 731 L 879 727 L 882 732 L 883 728 L 884 732 L 883 727 L 881 726 L 883 728 L 880 728 L 877 722"/>
<path d="M 864 607 L 863 610 L 861 609 L 866 609 L 865 611 L 868 610 L 871 613 L 873 622 L 874 619 L 882 624 L 882 631 L 884 633 L 882 625 L 886 622 L 882 624 L 877 622 L 875 615 L 878 613 L 875 613 L 873 616 L 865 607"/>
<path d="M 1108 296 L 1105 303 L 1101 301 L 1103 300 L 1099 302 L 1098 312 L 1091 316 L 1092 318 L 1092 316 L 1096 317 L 1100 314 L 1100 301 L 1101 303 L 1106 303 L 1112 298 L 1116 301 L 1114 297 L 1118 301 L 1113 296 L 1109 297"/>
<path d="M 985 689 L 991 691 L 988 694 L 987 702 L 982 707 L 982 711 L 986 713 L 991 709 L 992 718 L 995 722 L 997 720 L 992 718 L 993 708 L 989 707 L 984 710 L 988 694 L 991 692 L 989 689 L 986 689"/>
<path d="M 1100 340 L 1100 344 L 1102 341 L 1103 345 L 1107 346 L 1105 347 L 1106 349 L 1102 348 L 1107 350 L 1107 354 L 1113 356 L 1112 362 L 1115 363 L 1115 356 L 1117 355 L 1114 354 L 1118 353 L 1119 355 L 1119 353 L 1112 353 L 1111 355 L 1107 351 L 1109 345 L 1106 345 L 1101 340"/>
<path d="M 934 694 L 934 698 L 936 695 L 940 696 L 932 703 L 930 701 L 934 703 L 937 697 L 941 700 L 945 699 L 952 702 L 945 698 L 948 695 L 946 694 L 943 700 L 940 699 L 944 695 L 942 698 L 941 695 L 935 695"/>
<path d="M 1183 535 L 1180 538 L 1181 541 L 1186 538 L 1191 546 L 1195 546 L 1206 554 L 1204 552 L 1206 551 L 1203 550 L 1205 551 L 1202 552 L 1196 546 L 1192 546 L 1187 541 L 1187 538 L 1181 541 L 1180 539 L 1184 535 L 1188 536 L 1184 535"/>
<path d="M 733 570 L 736 584 L 735 593 L 736 586 L 737 593 L 740 582 L 737 587 L 735 583 L 736 578 L 737 582 L 737 572 L 735 570 L 737 572 L 736 577 L 733 571"/>
<path d="M 572 504 L 583 516 L 590 517 L 594 515 L 587 514 L 589 515 L 586 516 L 582 513 L 584 512 L 580 513 L 576 509 L 577 507 L 581 511 L 578 507 L 582 505 L 576 508 L 573 505"/>
<path d="M 947 654 L 943 657 L 947 654 L 948 656 L 940 662 L 941 658 L 940 662 L 942 665 L 952 662 L 953 669 L 953 662 L 951 661 L 954 660 L 955 664 L 955 660 L 944 663 L 942 661 L 948 655"/>
<path d="M 841 504 L 837 506 L 840 505 L 839 508 L 831 507 L 830 510 L 835 514 L 835 511 L 831 509 L 842 506 L 845 511 L 843 513 L 839 511 L 840 513 L 846 511 L 843 509 L 843 505 L 846 509 L 842 504"/>
<path d="M 846 378 L 841 382 L 836 382 L 834 385 L 830 385 L 827 383 L 829 382 L 824 380 L 823 382 L 835 386 L 836 383 L 840 384 L 837 384 L 837 382 L 850 378 L 847 381 L 850 380 L 851 383 L 851 379 L 847 378"/>
<path d="M 988 679 L 981 680 L 981 682 L 986 683 L 984 687 L 986 682 L 981 681 L 987 680 L 988 685 L 986 687 L 992 689 L 995 687 L 997 692 L 998 688 L 994 687 L 992 683 L 992 688 L 987 686 L 987 680 L 989 679"/>
<path d="M 819 380 L 814 382 L 818 383 L 814 384 L 815 388 L 812 383 L 814 389 L 810 393 L 806 391 L 813 394 L 816 391 L 813 393 L 812 391 L 816 387 L 817 389 L 815 385 L 821 384 L 821 382 L 817 382 L 820 380"/>
<path d="M 747 616 L 742 622 L 743 627 L 741 630 L 748 618 L 750 623 L 756 627 L 756 633 L 758 631 L 756 628 L 758 627 L 753 626 L 751 623 L 758 625 L 748 616"/>
<path d="M 981 762 L 981 765 L 976 764 L 974 774 L 967 774 L 967 778 L 964 781 L 969 776 L 967 777 L 967 774 L 973 775 L 973 777 L 978 773 L 977 767 L 986 764 L 986 762 L 982 762"/>
<path d="M 777 513 L 782 514 L 779 522 L 781 526 L 782 520 L 781 523 L 780 519 L 783 515 L 789 516 L 783 518 L 788 517 L 793 520 L 788 517 L 789 515 L 778 513"/>
<path d="M 1215 591 L 1206 596 L 1206 598 L 1211 599 L 1206 605 L 1211 606 L 1207 605 L 1211 603 L 1209 601 L 1215 598 L 1210 598 L 1215 594 L 1210 598 L 1206 597 L 1215 592"/>
<path d="M 1035 457 L 1030 462 L 1032 461 L 1032 464 L 1026 463 L 1013 467 L 1008 465 L 1013 467 L 1008 470 L 1032 464 L 1034 458"/>
<path d="M 757 635 L 757 638 L 763 641 L 760 643 L 757 640 L 763 643 L 766 639 L 763 641 L 762 638 L 765 636 L 771 643 L 767 635 L 763 635 L 765 636 L 761 641 L 757 636"/>
<path d="M 654 532 L 651 535 L 645 534 L 646 536 L 638 533 L 646 536 L 658 532 L 666 539 L 671 534 L 665 537 L 655 532"/>
<path d="M 1050 502 L 1051 505 L 1052 503 L 1055 504 L 1056 508 L 1066 510 L 1064 519 L 1062 518 L 1063 515 L 1061 515 L 1064 519 L 1065 511 L 1067 510 L 1059 509 L 1056 507 L 1057 504 L 1051 503"/>
<path d="M 590 492 L 584 496 L 581 495 L 581 497 L 585 497 L 584 500 L 575 503 L 573 501 L 574 503 L 582 503 L 583 500 L 590 503 L 584 496 L 586 493 L 587 495 L 588 493 L 591 494 L 591 492"/>
<path d="M 1105 471 L 1103 473 L 1107 480 L 1103 478 L 1108 485 L 1105 487 L 1106 489 L 1108 485 L 1120 485 L 1108 485 L 1110 483 L 1104 476 L 1104 472"/>
<path d="M 723 395 L 719 404 L 710 403 L 709 401 L 705 403 L 708 401 L 719 404 L 721 401 L 722 404 L 717 408 L 722 404 L 721 397 L 726 395 L 724 395"/>
<path d="M 968 791 L 969 796 L 964 800 L 966 814 L 965 808 L 967 805 L 964 803 L 964 800 L 967 799 L 967 803 L 970 800 L 967 799 L 969 791"/>
<path d="M 1253 107 L 1249 113 L 1245 128 L 1244 123 L 1245 129 L 1247 128 L 1246 132 L 1247 130 L 1248 132 L 1246 124 L 1249 113 L 1253 108"/>
<path d="M 672 379 L 671 383 L 674 385 L 672 391 L 677 393 L 685 392 L 677 393 L 672 390 L 675 385 L 676 390 L 680 390 L 676 389 L 676 383 L 673 379"/>
<path d="M 1023 534 L 1019 535 L 1028 538 L 1021 538 L 1028 539 L 1031 536 L 1034 544 L 1032 542 L 1032 538 L 1035 537 L 1033 534 L 1025 535 L 1026 537 L 1022 535"/>
<path d="M 1204 352 L 1203 358 L 1205 353 L 1209 353 L 1212 359 L 1219 362 L 1213 359 L 1216 356 L 1214 354 L 1217 352 L 1215 352 L 1213 359 L 1210 357 L 1212 354 L 1205 353"/>
<path d="M 657 547 L 658 553 L 649 550 L 645 554 L 653 550 L 655 552 L 654 555 L 657 555 L 655 554 L 660 551 L 664 555 L 665 553 L 664 555 L 658 548"/>
<path d="M 1136 468 L 1139 471 L 1136 474 L 1133 471 L 1132 476 L 1138 472 L 1140 474 L 1132 481 L 1142 472 L 1148 473 L 1141 473 L 1137 469"/>
<path d="M 1085 352 L 1083 357 L 1081 357 L 1082 353 L 1079 358 L 1081 357 L 1082 359 L 1079 360 L 1085 361 L 1082 364 L 1085 361 L 1088 364 L 1085 359 L 1082 359 L 1084 355 L 1087 355 L 1088 353 L 1086 352"/>
<path d="M 1115 381 L 1113 385 L 1110 383 L 1112 382 L 1109 383 L 1112 385 L 1111 389 L 1106 385 L 1106 387 L 1103 387 L 1112 392 L 1107 388 L 1112 390 L 1112 386 L 1116 382"/>
<path d="M 790 375 L 788 380 L 791 384 L 791 380 L 795 386 L 792 386 L 798 387 L 803 392 L 804 390 L 799 385 L 795 386 L 793 384 L 794 381 L 789 380 L 790 376"/>
<path d="M 809 677 L 807 679 L 800 678 L 806 680 L 801 685 L 790 682 L 791 678 L 791 683 L 801 685 L 810 677"/>
<path d="M 852 709 L 849 714 L 850 721 L 852 723 L 861 721 L 861 718 L 859 718 L 862 719 L 861 721 L 857 721 L 857 719 L 853 721 L 851 719 L 851 714 L 854 710 L 855 712 L 852 710"/>
<path d="M 937 570 L 940 571 L 930 577 L 929 583 L 934 582 L 930 581 L 940 576 L 933 579 L 930 578 L 940 571 L 938 570"/>
<path d="M 1247 134 L 1246 139 L 1248 140 L 1244 141 L 1244 139 L 1241 139 L 1237 152 L 1242 142 L 1248 141 L 1249 134 L 1248 139 L 1247 135"/>
<path d="M 777 654 L 777 661 L 778 659 L 784 667 L 780 666 L 787 671 L 783 668 L 786 667 L 787 669 L 782 665 L 777 655"/>
<path d="M 729 380 L 734 381 L 728 383 L 733 382 L 735 384 L 732 388 L 735 384 L 746 388 L 730 380"/>
<path d="M 845 650 L 841 657 L 843 658 L 839 659 L 842 659 L 845 653 L 848 657 L 846 655 L 847 652 L 850 656 L 853 654 L 851 656 L 847 652 L 844 654 L 843 652 L 846 650"/>
<path d="M 1120 480 L 1117 484 L 1112 482 L 1117 484 L 1120 481 L 1124 483 L 1123 485 L 1125 481 L 1128 486 L 1131 484 L 1128 486 L 1126 480 L 1124 482 L 1121 482 L 1121 480"/>
<path d="M 827 487 L 829 490 L 827 492 L 819 492 L 822 493 L 818 496 L 823 501 L 820 497 L 824 495 L 827 499 L 826 497 L 828 497 L 825 493 L 828 492 L 828 487"/>
<path d="M 1169 580 L 1163 586 L 1155 585 L 1153 588 L 1147 589 L 1147 591 L 1156 585 L 1163 586 L 1168 581 L 1172 583 L 1170 581"/>
<path d="M 318 414 L 320 416 L 317 416 L 317 423 L 314 420 L 308 419 L 312 421 L 311 423 L 315 423 L 312 425 L 318 422 L 319 419 L 317 418 L 321 416 L 319 415"/>
<path d="M 1245 54 L 1246 57 L 1244 59 L 1239 58 L 1236 63 L 1229 62 L 1237 63 L 1241 59 L 1251 60 L 1248 61 L 1246 57 L 1248 56 L 1245 55"/>
<path d="M 862 709 L 855 715 L 861 710 L 860 714 L 853 718 L 860 714 L 864 716 L 860 714 L 864 711 L 861 710 L 865 709 L 863 709"/>
<path d="M 1103 160 L 1103 164 L 1097 166 L 1095 163 L 1096 166 L 1093 169 L 1096 167 L 1101 168 L 1100 165 L 1104 163 L 1107 164 L 1104 166 L 1106 167 L 1108 162 L 1105 163 L 1103 161"/>
<path d="M 1108 410 L 1100 418 L 1095 419 L 1100 420 L 1102 416 L 1103 420 L 1100 422 L 1102 422 L 1104 418 L 1102 416 L 1104 414 L 1108 416 L 1105 414 L 1107 411"/>
<path d="M 1191 570 L 1190 574 L 1182 573 L 1177 578 L 1177 581 L 1183 580 L 1181 579 L 1179 582 L 1177 580 L 1181 574 L 1191 574 L 1190 571"/>
<path d="M 1149 493 L 1144 495 L 1146 496 L 1145 498 L 1139 495 L 1139 497 L 1140 495 L 1143 498 L 1135 501 L 1143 498 L 1147 500 L 1146 496 L 1150 495 L 1148 494"/>
<path d="M 1158 333 L 1152 340 L 1156 336 L 1165 341 L 1163 338 L 1165 336 L 1169 339 L 1164 335 L 1164 337 L 1159 338 L 1156 335 L 1158 334"/>
<path d="M 925 391 L 925 394 L 928 396 L 934 394 L 938 399 L 938 395 L 937 397 L 934 394 L 942 393 L 935 393 L 929 396 L 926 392"/>
<path d="M 1105 310 L 1104 314 L 1102 314 L 1104 317 L 1103 315 L 1110 311 L 1113 315 L 1118 314 L 1113 311 L 1114 315 L 1110 311 L 1108 313 L 1105 311"/>
<path d="M 778 606 L 779 609 L 777 611 L 764 615 L 764 617 L 769 614 L 771 615 L 770 617 L 775 617 L 775 615 L 772 616 L 770 614 L 777 611 L 779 607"/>
<path d="M 883 391 L 885 391 L 883 396 L 883 412 L 877 417 L 876 415 L 881 411 L 881 395 L 883 392"/>
<path d="M 1051 588 L 1051 592 L 1055 595 L 1053 598 L 1049 598 L 1051 600 L 1052 598 L 1057 605 L 1057 602 L 1053 599 L 1055 595 L 1057 596 L 1056 593 L 1051 589"/>
<path d="M 837 515 L 837 522 L 839 517 L 842 523 L 847 526 L 843 523 L 846 519 L 842 522 L 839 516 L 838 518 L 837 516"/>
<path d="M 849 510 L 853 511 L 852 518 L 851 512 L 849 513 L 851 513 L 851 517 L 854 519 L 853 511 L 857 512 L 850 510"/>
<path d="M 1081 480 L 1082 483 L 1094 482 L 1098 486 L 1095 483 L 1096 480 L 1097 482 L 1096 480 L 1094 482 L 1082 480"/>
<path d="M 871 500 L 871 505 L 868 506 L 866 503 L 864 505 L 875 505 L 876 508 L 878 506 L 880 509 L 879 506 L 877 507 L 871 502 L 872 500"/>
<path d="M 925 458 L 924 460 L 922 459 L 920 465 L 919 463 L 917 465 L 921 465 L 923 462 L 925 463 L 923 466 L 925 464 L 928 465 L 929 462 L 926 465 L 922 461 L 925 459"/>
<path d="M 1206 710 L 1202 712 L 1202 719 L 1202 713 L 1204 715 L 1203 712 L 1206 712 L 1204 719 L 1206 720 L 1207 710"/>
<path d="M 597 642 L 591 647 L 604 646 L 603 652 L 598 651 L 604 652 L 605 647 L 597 643"/>
<path d="M 1122 505 L 1123 508 L 1119 508 L 1121 509 L 1119 516 L 1124 522 L 1126 520 L 1121 514 L 1123 517 L 1119 516 L 1123 505"/>
<path d="M 1179 515 L 1180 519 L 1177 520 L 1182 523 L 1173 525 L 1179 523 L 1182 526 L 1180 528 L 1183 525 L 1181 525 L 1182 522 L 1179 516"/>
<path d="M 700 556 L 700 559 L 693 560 L 701 559 L 699 561 L 701 563 L 705 558 L 710 559 L 703 557 L 704 559 L 702 560 L 701 557"/>
<path d="M 840 702 L 836 704 L 840 702 L 843 704 L 841 707 L 843 704 L 846 704 L 849 708 L 848 702 L 847 705 L 846 702 L 845 704 L 841 703"/>
<path d="M 1164 290 L 1167 291 L 1164 294 L 1168 290 L 1176 291 L 1172 295 L 1176 291 L 1177 293 L 1177 290 L 1165 290"/>
<path d="M 404 400 L 402 401 L 404 400 L 405 402 L 403 404 L 400 403 L 400 405 L 413 405 L 412 403 L 410 406 L 405 405 L 405 403 L 409 403 L 405 401"/>
<path d="M 1033 752 L 1039 759 L 1039 756 L 1035 753 L 1044 754 L 1041 759 L 1044 753 L 1034 752"/>
<path d="M 888 623 L 884 626 L 885 631 L 884 626 L 888 623 L 892 627 L 898 627 L 893 623 L 895 626 L 892 627 L 891 623 L 889 623"/>
<path d="M 1103 437 L 1105 441 L 1102 444 L 1105 444 L 1106 440 L 1107 442 L 1114 443 L 1111 443 L 1110 440 L 1109 442 L 1107 441 L 1109 437 L 1106 440 L 1104 437"/>
<path d="M 960 587 L 954 590 L 955 593 L 960 592 L 959 595 L 961 591 L 968 590 L 965 591 L 963 589 L 958 592 L 959 588"/>
<path d="M 690 378 L 690 380 L 700 386 L 699 388 L 702 385 L 706 387 L 705 385 L 700 386 L 698 384 L 700 383 L 696 383 L 691 378"/>
<path d="M 1177 548 L 1178 551 L 1175 554 L 1172 550 L 1173 554 L 1178 555 L 1177 552 L 1180 554 L 1186 553 L 1182 552 L 1180 554 L 1178 549"/>
<path d="M 1181 637 L 1176 643 L 1175 640 L 1172 640 L 1176 643 L 1172 646 L 1177 646 L 1177 641 L 1180 638 L 1184 638 L 1182 637"/>
<path d="M 761 350 L 763 352 L 762 355 L 764 355 L 762 354 L 764 352 L 767 356 L 764 360 L 767 356 L 769 359 L 772 359 L 762 351"/>
<path d="M 421 387 L 423 388 L 421 396 L 424 398 L 420 400 L 422 399 L 422 401 L 425 397 L 427 399 L 423 397 L 422 387"/>
<path d="M 713 540 L 705 547 L 709 543 L 712 546 L 719 546 L 719 544 L 712 546 L 709 543 L 713 541"/>
<path d="M 307 357 L 305 360 L 312 361 L 312 364 L 320 364 L 314 364 L 312 361 L 315 359 L 309 362 L 307 358"/>
<path d="M 870 733 L 872 740 L 882 744 L 874 741 L 876 739 L 873 740 L 870 737 L 875 736 L 873 737 L 871 734"/>
<path d="M 616 622 L 620 624 L 617 628 L 614 624 L 612 626 L 618 629 L 620 624 L 626 628 L 623 627 L 623 624 L 617 622"/>
<path d="M 1247 98 L 1242 104 L 1240 101 L 1242 104 L 1239 107 L 1244 107 L 1241 105 L 1246 99 L 1249 103 L 1247 99"/>
</g>
<g id="subtle-data-flow" fill="none" stroke="#6FA7E8" stroke-width="1.4" stroke-linecap="round" stroke-dasharray="4 8" opacity="0.45">
<path d="M 500 330 C 650 355, 780 450, 850 520"/>
<path d="M 455 540 C 610 470, 745 445, 900 470"/>
<path d="M 590 650 C 720 570, 860 520, 1040 535"/>
<path d="M 840 520 C 950 350, 1070 285, 1250 290"/>
<path d="M 760 530 C 930 465, 1080 440, 1270 435"/>
</g>
<g id="project-anchor-coordinates" opacity="0" pointer-events="none">
<circle id="anchor-石家庄" cx="1000" cy="395" r="8" fill="#0B3A66"/>
<circle id="anchor-廊坊" cx="1060" cy="360" r="8" fill="#0B3A66"/>
<circle id="anchor-潍坊" cx="1125" cy="430" r="8" fill="#0B3A66"/>
<circle id="anchor-驻马店" cx="955" cy="535" r="8" fill="#0B3A66"/>
<circle id="anchor-鄂州" cx="1005" cy="590" r="8" fill="#0B3A66"/>
<circle id="anchor-荆州" cx="930" cy="610" r="8" fill="#0B3A66"/>
<circle id="anchor-奓山" cx="980" cy="610" r="8" fill="#0B3A66"/>
<circle id="anchor-大冶" cx="1024" cy="614" r="8" fill="#0B3A66"/>
<circle id="anchor-云栖" cx="1165" cy="640" r="8" fill="#0B3A66"/>
<circle id="anchor-柳州项目群" cx="825" cy="710" r="8" fill="#0B3A66"/>
</g>
</svg>
